<svg xmlns="http://www.w3.org/2000/svg" viewBox="0 0 100 100" width="50px" height="50px"><path fill="#f8e55b" d="M66.103,61.403c-12.78,0-23.141-10.36-23.141-23.141c0-8.802,4.916-16.456,12.151-20.368c-0.149-0.002-0.296-0.011-0.445-0.011c-17.135,0-31.026,13.891-31.026,31.026c0,17.135,13.891,31.026,31.026,31.026c16.549,0,30.069-12.958,30.974-29.281C81.538,57.113,74.324,61.403,66.103,61.403z"/><path fill="#1f212b" d="M54.669,80.934c-17.659,0-32.026-14.366-32.026-32.025s14.367-32.026,32.026-32.026c0.095,0,0.189,0.003,0.284,0.007l0.174,0.005c0.455,0.006,0.849,0.319,0.958,0.761c0.109,0.442-0.095,0.902-0.496,1.119c-7.171,3.877-11.626,11.345-11.626,19.488c0,12.208,9.932,22.141,22.141,22.141c7.613,0,14.603-3.845,18.696-10.285c0.244-0.384,0.718-0.554,1.149-0.416c0.434,0.14,0.718,0.554,0.693,1.008C85.701,67.657,71.657,80.934,54.669,80.934z M51.482,19.05c-15.064,1.596-26.839,14.378-26.839,29.858c0,16.556,13.47,30.025,30.026,30.025c14.698,0,27.046-10.601,29.557-24.725c-4.549,5.187-11.091,8.193-18.122,8.193c-13.311,0-24.141-10.829-24.141-24.141C41.963,30.648,45.534,23.576,51.482,19.05z"/><path fill="#fdf5a9" d="M23.417 18.324L24.603 20.726 27.254 21.111 25.336 22.981 25.788 25.621 23.417 24.375 21.046 25.621 21.499 22.981 19.581 21.111 22.232 20.726z"/><path fill="#1f212b" d="M25.788,26.121c-0.08,0-0.16-0.019-0.232-0.058l-2.139-1.124l-2.139,1.124c-0.167,0.09-0.372,0.074-0.526-0.038c-0.154-0.111-0.231-0.301-0.199-0.489l0.408-2.381l-1.73-1.686c-0.136-0.133-0.185-0.332-0.126-0.513s0.215-0.313,0.404-0.341l2.391-0.348l1.069-2.167c0.168-0.34,0.729-0.34,0.896,0l1.069,2.167l2.391,0.348c0.188,0.027,0.345,0.16,0.404,0.341s0.01,0.38-0.126,0.513l-1.73,1.686l0.408,2.381c0.032,0.188-0.045,0.378-0.199,0.489C25.995,26.089,25.892,26.121,25.788,26.121z M23.417,23.875c0.08,0,0.16,0.02,0.232,0.058l1.475,0.774l-0.281-1.643c-0.028-0.162,0.026-0.327,0.144-0.442l1.193-1.162l-1.648-0.239c-0.163-0.024-0.304-0.126-0.376-0.273l-0.737-1.494l-0.737,1.494c-0.073,0.147-0.213,0.249-0.376,0.273l-1.648,0.239l1.193,1.162c0.118,0.115,0.171,0.28,0.144,0.442l-0.281,1.643l1.475-0.774C23.258,23.895,23.337,23.875,23.417,23.875z"/><path fill="#fdf5a9" d="M50.466 63.137L51.652 65.54 54.303 65.925 52.384 67.795 52.837 70.435 50.466 69.188 48.095 70.435 48.548 67.795 46.629 65.925 49.28 65.54z"/><path fill="#1f212b" d="M48.095 70.935c-.104 0-.207-.032-.294-.096-.154-.111-.231-.301-.199-.489l.408-2.38-1.73-1.687c-.136-.133-.185-.332-.126-.513.059-.182.215-.313.404-.341l2.391-.348 1.069-2.166c.168-.34.729-.34.896 0l1.069 2.166 2.391.348c.188.027.345.159.404.341.059.181.01.38-.126.513l-1.73 1.687.409 2.38c.032.188-.045.378-.199.489-.153.113-.358.129-.526.038l-2.139-1.124-2.139 1.124C48.255 70.916 48.175 70.935 48.095 70.935zM47.703 66.273l1.193 1.163c.118.115.171.28.144.443l-.281 1.641 1.475-.774c.146-.076.319-.076.465 0l1.475.774-.282-1.641c-.028-.162.026-.328.144-.443l1.193-1.163-1.648-.239c-.163-.024-.304-.126-.376-.273l-.737-1.493-.737 1.493c-.073.147-.213.249-.376.273L47.703 66.273zM28.566 44.18c-.018 0-.037-.001-.055-.003-.274-.03-.473-.277-.442-.552.31-2.81 1.068-5.533 2.253-8.094 1.264-2.729 2.976-5.206 5.09-7.361.193-.197.51-.2.707-.006.197.193.2.51.007.707-2.034 2.072-3.682 4.455-4.897 7.08-1.139 2.463-1.868 5.081-2.166 7.783C29.034 43.99 28.818 44.18 28.566 44.18zM39.267 26.039c-.157 0-.311-.073-.408-.211-.16-.226-.107-.537.119-.697 2.253-1.597 4.726-2.82 7.35-3.636.267-.084.544.066.626.329.082.264-.065.544-.329.626-2.523.784-4.902 1.961-7.069 3.497C39.468 26.009 39.367 26.039 39.267 26.039z"/><path fill="#fdf5a9" d="M61.29 36.1L62.476 38.503 65.127 38.888 63.209 40.758 63.662 43.398 61.29 42.151 58.919 43.398 59.372 40.758 57.454 38.888 60.105 38.503z"/><path fill="#1f212b" d="M58.919,43.898c-0.104,0-0.207-0.032-0.294-0.096c-0.154-0.111-0.231-0.302-0.199-0.489l0.409-2.38l-1.73-1.687c-0.136-0.133-0.185-0.332-0.126-0.513c0.059-0.182,0.215-0.313,0.404-0.341l2.391-0.347l1.069-2.167c0.168-0.34,0.729-0.34,0.896,0l1.069,2.167l2.391,0.347c0.188,0.027,0.345,0.159,0.404,0.341c0.059,0.181,0.01,0.38-0.126,0.513l-1.73,1.687l0.409,2.38c0.032,0.188-0.045,0.378-0.199,0.489c-0.153,0.113-0.358,0.129-0.526,0.038l-2.139-1.124l-2.139,1.124C59.079,43.879,58.999,43.898,58.919,43.898z M61.29,41.651c0.08,0,0.16,0.02,0.232,0.058l1.475,0.774l-0.282-1.641c-0.028-0.162,0.026-0.328,0.144-0.443l1.193-1.162l-1.648-0.239c-0.163-0.024-0.304-0.126-0.376-0.273l-0.737-1.494l-0.737,1.494c-0.073,0.147-0.213,0.249-0.376,0.273l-1.648,0.239l1.193,1.162c0.118,0.115,0.171,0.281,0.144,0.443l-0.282,1.641l1.475-0.774C61.131,41.671,61.21,41.651,61.29,41.651z"/></svg>